<?xml version="1.0" standalone="no"?>
<!DOCTYPE svg PUBLIC "-//W3C//DTD SVG 20010904//EN"
 "http://www.w3.org/TR/2001/REC-SVG-20010904/DTD/svg10.dtd">
<svg version="1.0" xmlns="http://www.w3.org/2000/svg"
 width="200.000000pt" height="200.000000pt" viewBox="0 0 200.000000 200.000000"
 preserveAspectRatio="xMidYMid meet">
<metadata>
Created by potrace 1.15, written by Peter Selinger 2001-2017
</metadata>
<g transform="translate(0.000000,200.000000) scale(0.100000,-0.100000)"
fill="#000000" stroke="none">
<path d="M417 1403 c-2 -4 -8 -30 -12 -58 -4 -27 -13 -65 -21 -84 -8 -18 -14
-42 -14 -52 0 -11 -7 -19 -15 -19 -10 0 -15 -10 -15 -30 0 -25 -4 -30 -25 -30
-22 0 -25 -4 -25 -40 0 -33 -3 -40 -20 -40 -19 0 -20 -7 -20 -182 l-1 -183
-39 45 c-36 41 -70 112 -70 147 0 9 14 13 40 13 29 0 40 4 40 15 0 11 -13 15
-47 17 -37 1 -40 2 -15 5 24 3 32 9 32 24 0 14 -7 19 -26 19 -24 0 -25 3 -19
28 12 48 35 89 72 126 20 20 40 36 45 36 4 0 8 11 8 25 0 34 -10 32 -61 -14
-71 -62 -102 -130 -107 -231 -5 -110 19 -179 86 -248 74 -75 128 -97 242 -97
84 0 101 3 145 27 101 53 173 156 183 260 4 38 8 48 23 48 12 0 21 10 25 25 3
14 10 25 15 25 5 0 11 -11 15 -25 5 -19 13 -25 35 -25 l29 0 -21 52 c-11 29
-22 55 -25 59 -2 4 5 31 16 59 25 64 25 70 -4 70 -17 0 -26 -8 -33 -32 l-10
-33 -13 33 c-9 24 -18 32 -36 32 -29 0 -29 -4 -3 -68 20 -48 20 -54 6 -89 -13
-33 -16 -35 -22 -18 -22 67 -55 125 -92 162 -23 24 -47 43 -53 43 -19 0 -10
-42 13 -61 21 -18 21 -18 1 -19 -25 0 -44 -18 -44 -42 0 -23 36 -24 45 0 6 16
7 16 20 -2 8 -10 20 -16 28 -13 34 13 60 -139 38 -220 -11 -38 -15 -43 -41
-43 -23 0 -30 -5 -30 -19 0 -11 7 -21 16 -23 13 -2 10 -10 -17 -38 l-34 -35
-3 183 c-2 153 -5 182 -17 182 -11 0 -15 11 -15 40 0 33 -3 40 -20 40 -16 0
-20 7 -20 30 0 23 -4 30 -20 30 -14 0 -20 7 -20 21 0 11 -5 29 -10 40 -6 10
-16 49 -23 86 -11 60 -27 87 -40 66z m112 -330 c-2 -24 -2 -25 -6 -5 -5 27
-33 29 -33 2 0 -11 -4 -20 -10 -20 -5 0 -10 9 -10 20 0 13 -7 20 -20 20 -13 0
-20 -7 -20 -20 0 -11 5 -20 10 -20 6 0 9 -76 8 -212 -1 -117 -3 -194 -5 -170
-3 27 -9 42 -18 42 -9 0 -15 -15 -18 -42 -2 -24 -4 62 -3 190 1 179 -2 232
-11 232 -7 0 -13 -9 -13 -20 0 -11 -4 -20 -10 -20 -5 0 -10 9 -10 19 0 11 -8
22 -17 24 -10 3 28 5 85 6 l102 1 -1 -27z"/>
<path d="M1700 1085 l0 -155 30 0 30 0 0 155 0 155 -30 0 -30 0 0 -155z"/>
<path d="M1450 1200 c0 -20 -5 -30 -15 -30 -8 0 -15 -9 -15 -20 0 -11 5 -20
10 -20 6 0 10 -35 10 -85 0 -72 3 -88 20 -105 21 -21 29 -23 54 -14 23 9 20
41 -4 47 -18 5 -20 14 -20 81 0 69 2 76 20 76 13 0 20 7 20 20 0 13 -7 20 -20
20 -16 0 -20 7 -20 30 0 23 -4 30 -20 30 -16 0 -20 -7 -20 -30z"/>
<path d="M920 1075 l0 -145 50 0 c36 0 55 5 69 19 38 38 38 214 0 252 -14 14
-34 19 -69 19 l-50 0 0 -145z"/>
<path d="M1090 1075 l0 -145 30 0 30 0 0 65 c0 58 2 65 20 65 18 0 20 -7 20
-65 0 -63 1 -65 25 -65 l25 0 0 145 0 145 -25 0 c-24 0 -25 -3 -25 -60 0 -53
-2 -60 -20 -60 -18 0 -20 7 -20 60 l0 60 -30 0 -30 0 0 -145z"/>
<path d="M1299 1151 c-22 -18 -24 -27 -24 -106 0 -79 2 -88 24 -106 29 -24 52
-24 81 -1 38 31 41 180 4 217 -21 21 -57 19 -85 -4z"/>
<path d="M1571 1153 c-25 -21 -38 -98 -27 -158 8 -41 37 -75 65 -75 24 0 57
29 66 58 5 19 3 22 -19 22 -16 0 -26 -6 -26 -15 0 -8 -7 -15 -15 -15 -10 0
-15 10 -15 30 0 28 3 30 35 30 29 0 36 4 41 25 21 85 -45 147 -105 98z"/>
<path d="M1799 1149 c-28 -28 -20 -69 26 -125 39 -47 41 -54 21 -54 -7 0 -16
9 -19 20 -3 12 -14 20 -27 20 -18 0 -21 -5 -18 -32 6 -62 104 -76 119 -17 8
31 -4 61 -42 109 -17 21 -28 43 -24 49 9 16 25 3 25 -20 0 -12 7 -19 20 -19
16 0 20 7 20 35 0 55 -60 75 -101 34z"/>
</g>
</svg>
